# xmcd
#
# Track frame offsets: 
#        150
#        16102
#        35085
#        54448
#        70592
#        83664
#        99334
#        118682
#        139389
#        155909
#        175750
#        193771
#        213648
#        242372
#        264308
#        286024
#        303941
#
# Disc length: 4442 seconds
#
# Revision: 1
# Processed by: cddbd v1.5.2PL0 Copyright (c) Steve Scherf et al.
# Submitted via: ExactAudioCopy v0.95b4
#
DISCID=e4115811
DTITLE=The Eagles - Greatest Hits - CD1
DYEAR=2003
DGENRE=Rock
TTITLE0=Take It Easy
TTITLE1=Witchy Woman
TTITLE2=Peaceful Easy Feeling
TTITLE3=Desperado
TTITLE4=Tequila Sunrise
TTITLE5=Doolin-Dalton
TTITLE6=Already Gone
TTITLE7=The Best Of My Love
TTITLE8=James Dean
TTITLE9=Ol' 55
TTITLE10=Midnight Flyer
TTITLE11=On The Border
TTITLE12=Lyin' Eyes
TTITLE13=One Of These Nights
TTITLE14=Take It To The Limit
TTITLE15=After The Thrill Is Gone
TTITLE16=Hotel California
EXTD=YEAR: 2003
EXTT0=
EXTT1=
EXTT2=
EXTT3=
EXTT4=
EXTT5=
EXTT6=
EXTT7=
EXTT8=
EXTT9=
EXTT10=
EXTT11=
EXTT12=
EXTT13=
EXTT14=
EXTT15=
EXTT16=
PLAYORDER=
